<?xml version="1.0" encoding="UTF-8"?>
<svg width="40px" height="32px" viewBox="0 0 40 32" version="1.1" xmlns="http://www.w3.org/2000/svg" xmlns:xlink="http://www.w3.org/1999/xlink">
    <title>Artboard Copy</title>
    <g id="Artboard-Copy" stroke="none" stroke-width="1" fill="none" fill-rule="evenodd">
        <path d="M27.309,1.13915 C32.3337319,2.21474418 35.970095,6.23713913 36.7951187,11.0084137 C36.8474289,10.9563974 36.923148,10.9289867 37.00225,10.940125 C38.4305,11.141225 39.42525,12.462025 39.22425,13.8902 L38.88325,16.311325 C38.68225,17.7395 37.36125,18.73425 35.93325,18.53325 C35.8538357,18.52203 35.7885199,18.4745446 35.7516583,18.4099513 C35.0194375,19.9269171 33.9917957,21.2486355 32.7569924,22.3179918 C33.0140165,22.5975342 33.2289517,22.9149574 33.3925,23.2595 C33.4625,23.40725 33.523,23.5595 33.57375,23.71675 C33.68825,24.07325 33.7495,24.4515 33.7495,24.84325 L33.7489637,24.8739439 L33.75,24.9075 L33.7499637,25.6649439 L33.9249586,25.9436943 C34.9538694,27.6053581 35.9604195,29.6531414 36.5987741,31.9998001 L13.7499637,31.9999439 L13.750282,28.0174415 C10.926741,28.1056157 7.36078533,26.8142924 2.763,21.6585 C2.61846563,21.4965 2.43946749,21.3452641 2.24608264,21.1952837 L1.62041595,20.7221234 L1.41884521,20.5589166 C0.72650776,19.9747861 0.200884511,19.2416206 0.74075,17.93375 C1.66225,15.7008 2.959,15.979425 2.959,15.979425 L2.93914758,15.9031635 C2.87844252,15.64358 2.73490789,14.7843224 3.35175,14.312575 C4.3855,13.520975 5.61125,14.693575 6.80175,15.5295 C6.888,15.5903 6.91075,15.202075 7.06075,14.813875 C7.20475,14.4416 7.46625,14.06935 8.01375,14.093 C9.4002,14.1527133 9.52084,16.9036202 9.52836267,17.6361338 L9.528,17.81375 L9.71339223,18.0040561 C10.3029306,18.5872676 12.2603714,20.3624286 15.0365,21.22725 C15.2959106,21.3080725 15.5625671,21.3809269 15.8359929,21.4440989 C14.2169917,19.7128808 13.11627,17.5300359 12.7074588,15.1629875 C12.6673911,15.2033497 12.6136386,15.2292663 12.5551407,15.2345766 L12.4975,15.233125 C11.0695,15.03205 10.07475,13.71125 10.27575,12.283075 L10.61675,9.86195 C10.81775,8.433775 12.13875,7.43905 13.56675,7.640125 C13.6473321,7.65148043 13.7133981,7.70014947 13.7499495,7.76618941 C16.1419332,2.80876718 21.6876364,-0.0642017724 27.309,1.13915 Z" id="suit" fill="#FFFFFF" fill-rule="nonzero"></path>
        <path d="M27.3985,0.721575 C32.4459694,1.802044 36.1459787,5.77333898 37.1352828,10.5293626 L37.06175,10.5173 C37.8655,10.63045 38.577,11.0498 39.06525,11.69815 C39.55375,12.34645 39.76025,13.146075 39.647,13.949775 L39.306,16.370925 C39.0925,17.88675 37.7885,18.98575 36.29925,18.986 C36.1836986,18.986 36.0671326,18.9794052 35.9496911,18.9657984 C35.3327262,20.1401042 34.540788,21.1942263 33.6150758,22.1014446 C34.202803,22.8833438 34.551,23.8555334 34.551,24.9075 L34.5511157,26.2192285 C35.4552667,27.7560066 36.3911342,29.7201112 37.0000445,31.998979 L36.182875,31.9990203 L35.996174,31.3652354 L35.9031359,31.0754841 L35.7006059,30.4889609 L35.5432742,30.0675006 L35.4082834,29.7254513 L35.1764329,29.1732444 L34.9794633,28.7336869 L34.8405418,28.4376713 L34.7408813,28.2317304 C34.678268,28.1039386 34.6153034,27.9783563 34.5520266,27.854829 C34.2875771,27.3384583 34.0165977,26.8562656 33.7501653,26.4134677 L33.5605,26.1035 L33.3129564,25.7136658 L32.9890544,25.2260137 L32.6185979,24.6961459 C32.5067702,24.5403832 32.3971308,24.3912228 32.2890246,24.247208 L31.9820708,23.846437 L31.7798939,23.591033 L31.4179565,23.8245698 C30.7750736,24.224157 30.0963676,24.5665896 29.3901586,24.8465098 L29.2502598,24.901012 L28.8382626,25.0505725 C27.6659011,25.4533501 26.4262832,25.6866504 25.1553512,25.7273331 L24.75425,25.73375 C23.88,25.73375 22.993,25.64225 22.1045,25.452 L21.6983366,25.3581329 L21.298194,25.251857 L20.937875,25.1430203 L20.5783529,25.0246596 C18.7750103,24.3957452 17.1859862,23.3821865 15.8857299,22.0989879 L15.7944256,22.0080315 L15.5850915,21.7920741 C14.517536,21.5302825 13.5550012,21.1296659 12.7209501,20.6866504 L12.6792779,21.0361044 L12.61515,21.4925336 L12.5220559,22.0506759 C12.308379,23.2280824 11.9227493,24.7400294 11.2387972,26.0070928 L11.153783,26.1605676 C11.068128,26.311236 10.9780307,26.4579944 10.8832309,26.5999032 L10.7275669,26.8224155 L10.5307804,27.0760445 L10.7077388,27.1385287 L10.9094973,27.2052208 L11.2218904,27.2990673 L11.5647851,27.3888165 L11.7508759,27.4315429 L12.1910642,27.5158599 L12.4600327,27.5556979 L12.7971475,27.5930131 L13.0727748,27.6130234 L13.2701183,27.6215569 L13.5493597,27.6253038 L13.8283442,27.6192163 L14.0742084,27.6060135 L14.3186193,27.585356 L14.5249282,27.5622007 L14.7313841,27.5338452 C14.8356945,27.5182202 14.938118,27.5009196 15.0386676,27.4822023 L15.087875,27.2510203 L15.1619722,26.957287 L15.243,26.66825 C15.41625,26.09325 15.63475,25.52775 15.9415,24.994 C15.95875,24.964 15.997,24.95375 16.027,24.971 C16.046,24.98175 16.057,25.00125 16.05825,25.0215 C16.0690833,25.2293333 16.0648056,25.4311667 16.0563056,25.6308519 L16.04175,25.92925 C16.02975,26.228 15.998,26.5205 15.9715,26.81425 C15.944,27.1075 15.901,27.397 15.86125,27.68775 C15.81575,27.977 15.756,28.264 15.70475,28.553 L15.6265,28.98625 L15.5936563,29.2040625 L15.505375,29.8589375 L15.4027813,30.7347813 L15.3575,31.17375 C15.328367,31.4483986 15.3023252,31.7237095 15.2789595,31.9994754 L14.488875,31.9990203 L14.5294688,31.5386563 L14.6196875,30.6493125 L14.671,30.205 C14.704,29.90875 14.74175,29.61275 14.78275,29.317 L14.909701,28.3052167 C14.5449248,28.3632237 14.1588669,28.402945 13.7512839,28.4148028 L13.750875,31.9990203 L12.948875,31.9990203 L12.9490907,28.4013114 L12.5816266,28.3704945 C9.97405081,28.0969662 6.62363143,26.5793245 2.469,21.921 C2.35575,21.7941 2.21226,21.67008 2.053164,21.544674 L1.42057313,21.0656078 L1.22559282,20.9097379 L1.03292269,20.7431153 C0.336300115,20.1106706 -0.221346154,19.2319718 0.37625,17.7835 C1.044,16.16555 1.93175,15.718275 2.4955,15.608475 C2.457,15.144425 2.52025,14.452275 3.112,13.999525 C4.14148,13.211936 5.2507332,13.9091654 6.25521054,14.6427561 L6.615,14.90815 C6.766,14.411275 7.1125,13.6573 8.03075,13.699225 C9.79925,13.775525 9.92275,16.8291 9.92375,17.6565 L10.1256209,17.8530458 L10.4439985,18.1431019 C11.2280149,18.8326111 12.7079349,19.9652457 14.6423306,20.6744115 C13.5331889,19.1944409 12.7489702,17.477537 12.3676339,15.6439942 L12.2391176,15.621378 C11.517467,15.4713681 10.8823125,15.0694708 10.43475,14.47515 C9.9465,13.82685 9.73975,13.02725 9.853,12.223525 L10.194,9.80245 C10.307,8.998725 10.7265,8.28725 11.37475,7.79895 C11.9640682,7.35513182 12.6783864,7.14391694 13.4074491,7.19430612 L13.5537087,7.20891026 C16.1252783,2.31391656 21.7331487,-0.491161675 27.3985,0.721575 Z M27.3105,29.03675 C28.27775,29.03675 29.06475,29.82375 29.06475,30.791 L29.063875,31.9990203 L28.276875,31.9990203 L28.27725,30.791 C28.27725,30.258 27.8435,29.82425 27.3105,29.82425 L21.71125,29.82375 L21.7115,31.4575 C21.7115,31.6480577 21.7586801,31.8343018 21.8450962,32.000239 L21.2070997,32.0004474 C21.1506209,31.8266112 21.12075,31.6434469 21.12075,31.4575 L21.12025,29.82375 L19.8795,29.82425 C19.3465,29.82425 18.91275,30.258 18.91275,30.791 L18.911875,31.9990203 L18.124875,31.9990203 L18.12525,30.791 C18.12525,29.82375 18.91225,29.03675 19.8795,29.03675 L27.3105,29.03675 Z M29.4345426,28.5496147 C29.5017364,28.5857097 29.5584626,28.6412232 29.5956431,28.7111753 L29.62575,28.785 C29.6526915,28.8761424 30.0255499,30.1565952 30.2819686,31.99877 L29.4816299,31.9991054 C29.2289992,30.2416649 28.8767167,29.0294432 28.8705,29.00825 C28.809,28.79975 28.928,28.58075 29.13675,28.519 C29.2403687,28.4883487 29.3464512,28.502294 29.4345426,28.5496147 Z M31.51075,26.3395 C31.5315,26.34175 31.54925,26.35425 31.559,26.371 C31.8345,26.8585 32.0315,27.36575 32.1915,27.882 C32.35525,28.39725 32.45875,28.9265 32.523,29.462 L32.7555,31.06175 C32.7988935,31.3738322 32.8393837,31.6864268 32.8761724,31.9994838 L32.082875,31.9990203 L32.0779375,31.9580313 C32.046125,31.695 32.01175,31.43225 31.97525,31.16975 C31.90125,30.645 31.8285,30.11925 31.71525,29.60025 C31.663,29.34 31.60575,29.08075 31.5615,28.819 C31.521,28.5565 31.48875,28.29225 31.46275,28.02625 C31.4365,27.7605 31.425,27.4915 31.4165,27.22075 C31.4105,26.94975 31.411,26.677 31.441,26.397 C31.445,26.36075 31.476,26.33575 31.51075,26.3395 Z M3.59075,14.625125 C3.21852163,14.9098584 3.25618692,15.4484765 3.30184679,15.7124225 L3.3355,15.865975 C3.375,15.99935 3.34175,16.14455 3.24725,16.24665 C3.17145,16.32835 3.06605,16.37397 2.95729,16.3737436 L2.80759913,16.3607401 C2.69285343,16.3608845 2.44501973,16.3903835 2.1451164,16.6013338 L2.04580276,16.6765679 L1.9644746,16.746439 L1.87045803,16.8369811 L1.75796032,16.9599256 L1.61926765,17.1355845 L1.48573338,17.3324405 L1.36840672,17.5309975 L1.3125416,17.6349057 L1.2424755,17.7746477 L1.08887502,18.1220203 L1.01687502,18.3240203 L0.986875024,18.4250203 L0.958452535,18.5388676 L0.928741855,18.7077105 L0.920808978,18.779674 L0.914528516,18.893955 L0.918971601,19.0428813 L0.936558212,19.1779165 L0.960140177,19.2835131 L1.00471985,19.4206006 L1.06687763,19.5587952 L1.13987308,19.6851515 L1.24471092,19.8315984 L1.33273685,19.9357821 L1.42392483,20.032122 L1.48965863,20.0962719 L1.63836361,20.2298395 C1.74095657,20.3176166 1.84993973,20.4032859 1.96286917,20.4891895 L2.18487502,20.6550203 L2.55795,20.939712 C2.73924,21.08358 2.9118,21.234 3.057,21.39675 L3.33699872,21.7072395 L3.74829693,22.1506455 L3.93057701,22.3422807 L4.22803812,22.6485063 L4.54745106,22.9682872 C4.71346582,23.1320356 4.87792472,23.2904073 5.04083571,23.4435577 L5.55975416,23.9185681 L6.05297161,24.3459935 L6.35016244,24.5920362 L6.73305405,24.896089 L6.91146126,25.0327174 L7.20741755,25.2521705 L7.65688667,25.5684812 L7.91648936,25.7415351 L8.18162167,25.9109442 L8.44605487,26.0724527 L8.81462758,26.2850041 L9.1725374,26.4772137 C9.3619389,26.5751903 9.54839071,26.6656745 9.73187132,26.7490606 L9.91635718,26.8311727 L10.0098996,26.7238256 L10.1474178,26.5531607 L10.2810739,26.3716932 L10.4036371,26.1904943 L10.5532407,25.9485917 L10.6301299,25.8121445 C11.7050273,23.8920495 12.0411496,21.2212229 12.1254665,20.3507372 C10.3726739,19.307171 9.31755006,18.167486 9.237,18.079 C9.169,18.00425 9.13225,17.906 9.1345,17.805 C9.1585,16.73915 8.91175,14.525575 7.99675,14.4861 C7.637875,14.4712042 7.47919618,14.7324656 7.34374754,15.2256525 L7.2805633,15.470595 L7.1935,16.69345 C7.188,16.770025 7.1625,16.840325 7.122,16.899525 L7.029,17.018 L6.9455,17.1425 C6.89125,17.22775 6.84425,17.31775 6.80125,17.40975 C6.71725,17.59425 6.6605,17.78925 6.6365,17.98775 C6.62,18.0875 6.6255,18.1865 6.62425,18.288 L6.65021296,18.487963 L6.66024537,18.5376933 L6.674,18.58675 C6.7055,18.7375 6.77004688,18.880375 6.84591406,19.0206484 L6.935,19.178 C6.9895,19.27175 6.95775,19.392 6.864,19.4465 C6.77875,19.496 6.67175,19.47425 6.612,19.3995 C6.4545,19.203 6.3,18.9915 6.20725,18.74325 C6.15025,18.62325 6.124,18.49275 6.088,18.36375 C6.0685,18.23225 6.04475,18.099 6.04625,17.96525 C6.04,17.6975 6.0785,17.43 6.153,17.1755 C6.19125,17.04875 6.2355,16.923525 6.29,16.8021 L6.33175,16.7110906 L6.41005556,16.5609407 L6.46787502,15.7749615 L5.7039821,15.2168671 C4.7699072,14.5456029 4.13139474,14.211175 3.59075,14.625125 Z M33.020517,22.6468901 L32.7540087,22.8717821 C32.6456882,22.9601734 32.5359468,23.0467539 32.4248366,23.1314898 C32.8393933,23.6517378 33.2912443,24.2588489 33.75102,24.9462399 L33.75,24.9075 C33.75,24.0661535 33.4792268,23.2850046 33.020517,22.6468901 Z M15.041875,19.7660203 L15.2326124,20.0368918 L15.4344466,20.3055207 L15.5060591,20.3971508 L15.7022291,20.639055 C16.1253373,21.1470477 16.5916275,21.6206425 17.0960081,22.0526551 L17.4819163,22.3693336 L17.688917,22.52829 L18.099988,22.8231233 L18.4414117,23.0483733 L18.8478651,23.2950231 L19.3931853,23.5918817 L19.7180353,23.7513929 L20.1053691,23.9256138 L20.4514168,24.0673256 L20.8193255,24.2041301 L21.1807669,24.325176 L21.7056947,24.4782633 L22.0647618,24.5680664 L22.28325,24.617 L22.4336076,24.6481784 L22.6831434,24.6954932 L23.066875,24.7570203 L23.4815362,24.8102218 L23.8972641,24.8481335 L24.4061367,24.8743299 L24.8006103,24.8793972 L25.1651575,24.8722479 L25.6517563,24.8450368 L26.354875,24.7690203 L26.8708651,24.6861628 L27.2990899,24.5992173 L27.5504878,24.5401053 L27.9679012,24.4292352 L28.2014532,24.3601032 L28.669241,24.2052954 L29.0364205,24.0683278 L29.3281279,23.9494729 L29.7563657,23.758243 L29.953094,23.6634687 L30.2840761,23.4936665 L30.458098,23.3991078 L30.766387,23.2221789 L31.05775,23.0435 C30.6724785,23.1812912 30.2511801,23.3104044 29.7991615,23.4254447 L29.192465,23.5668994 C28.9092226,23.6266343 28.6162909,23.6806463 28.3146257,23.7276574 L27.897875,23.7860203 L27.570875,23.8250203 L27.179875,23.8650203 L26.7824799,23.8960167 L26.6005185,23.9067458 L26.1482393,23.924 L25.7292393,23.93 L25.209875,23.9240203 L24.9598734,23.9165187 L24.4763726,23.889192 L24.2679447,23.8728088 C24.1192003,23.8603605 23.9696956,23.8458417 23.8195116,23.8291662 C23.5473291,23.7989448 23.2729156,23.7616399 22.9967537,23.7167401 L22.5885,23.645 C21.3521605,23.4112976 20.181359,23.0038013 19.1163695,22.5028168 L18.5996328,22.2486888 C18.3413914,22.1156991 18.0902201,21.9776302 17.84675,21.83575 C17.0979891,21.3998642 16.4221913,20.9281113 15.837882,20.4574675 L15.652875,20.3050203 L15.3319243,20.0303915 L15.041875,19.7660203 Z M37.2907961,11.441207 L37.300105,11.5180181 C37.4726195,12.8880419 37.4217201,14.3090817 37.11675,15.733775 C36.9373372,16.5719617 36.6782011,17.3729946 36.3489876,18.1306298 L36.4401581,18.1266978 L36.6082396,18.1092924 L36.7578639,18.082509 L36.8495059,18.060506 L36.9746689,18.0240377 L37.1084367,17.9752788 C37.2198143,17.9305423 37.3271809,17.876698 37.4293849,17.8145808 L37.595334,17.7030744 L37.7342163,17.5913911 L37.8002632,17.5311992 L37.898245,17.4323467 L38.0091393,17.3034632 L38.0869096,17.1994315 L38.1833761,17.0493259 L38.2661585,16.8939636 L38.3293292,16.7496369 L38.3825862,16.5987327 L38.4271326,16.433306 L38.4605,16.2518 L38.80125,13.830625 C38.95248,12.7577913 38.2928932,11.7542994 37.2907961,11.441207 Z M13.198,8.041275 C12.72725,8.041275 12.27125,8.192925 11.8885,8.48115 C11.4225,8.832225 11.121,9.3437 11.0395,9.921525 L10.69875,12.3426 C10.61725,12.920425 10.76575,13.4953 11.11675,13.961375 L11.270875,14.1450203 C11.3218783,14.198848 11.3735785,14.248687 11.4277516,14.2960647 L11.5406465,14.3881349 L11.6960275,14.4959835 L11.7708519,14.5411128 L11.9298709,14.6240645 L12.0423655,14.6731076 L12.213,14.7336 L12.167511,14.3428152 L12.1271959,13.8420127 C12.1163899,13.6605771 12.1094157,13.4790323 12.1064033,13.2968817 L12.105,13.0074 L12.1139128,12.6085142 C12.1414371,11.8908079 12.2308654,11.1658553 12.38625,10.43995 C12.5656675,9.60177092 12.8248045,8.80074843 13.1540156,8.043125 L13.198,8.041275 Z M15.2057113,6.16816025 C14.8416714,6.66817437 14.5154257,7.19934171 14.2316762,7.75862304 C16.6342615,4.47906554 21.3072859,3.78684953 26.42575,4.801925 C31.1318275,5.73519956 34.9390622,7.85879787 36.2743375,11.2643279 L36.29825,11.092375 C36.3062372,11.0358158 36.3210287,10.9813129 36.3420864,10.9297866 L36.2681201,10.5596518 L36.1771914,10.1862857 C34.6557407,7.10982253 31.16125,4.83189236 26.5325,3.91375 C21.8782292,2.99091667 17.7724199,3.81278675 15.2057113,6.16816025 Z M24.749,1.294125 C22.0521547,1.294125 19.4872593,2.22660091 17.4419765,3.84062091 C19.9907854,2.7294571 23.1963203,2.47803638 26.68025,3.169025 C30.1743398,3.8620728 33.0614822,5.30955504 35.0136534,7.28998075 C33.4094229,4.45453508 30.6478294,2.29053939 27.21975,1.55665 C26.3915,1.3794 25.56375,1.294125 24.749,1.294125 Z" id="outline" fill="#371A45" fill-rule="nonzero"></path>
        <path d="M32.5305,16.4251 C32.3835,16.4251 32.2385,16.398975 32.0995,16.3443 C31.29425,16.027325 30.99625,14.869575 31.4335,13.758375 C31.7955,12.838925 32.5475,12.239525 33.2525,12.239525 C33.3995,12.239525 33.54475,12.26565 33.6835,12.320325 C34.33425,12.5765 34.65375,13.381875 34.5215,14.26795 C34.3285,14.768775 34.10775,15.2544 33.861,15.723375 C33.4805,16.1645 32.99525,16.42515 32.5305,16.4251 Z M30.05925,19.121 C29.93075,19.121 29.80375,19.09 29.688,19.02475 C29.27825,18.79375 29.1645,18.21925 29.43375,17.742 C29.627,17.39925 29.965,17.19975 30.292,17.19975 C30.4205,17.19975 30.5475,17.23075 30.66325,17.296 C31.073,17.527 31.18675,18.1015 30.9175,18.57875 C30.724,18.9215 30.38625,19.121 30.05925,19.121 Z M14.717,15.441625 L14.6979102,15.2161391 C14.6151173,14.0545978 14.4293889,8.73949167 17.7925,7.152425 C19.514,6.340025 21.43475,6.0942 23.00075,6.0942 C24.8765,6.0942 26.24325,6.44675 26.14975,6.600675 L25.9422632,6.61491452 C24.9137123,6.70059763 20.3096635,7.26312115 17.76175,10.577775 L17.3841964,11.0779596 C15.4466886,13.6926534 14.717,15.441625 14.717,15.441625 Z" id="reflections" fill="#9B8DA2" fill-rule="nonzero"></path>
        <path d="M11.1968026,26.0838989 C12.3785623,26.6056985 13.6394247,26.892608 14.7838583,26.9405429 L15.1645,26.9475 L15.0788585,27.2890743 L15.0375,27.4825 L14.7116336,27.5367626 L14.5249282,27.5622007 L14.1461036,27.6006118 C14.0418658,27.6087679 13.9359494,27.6150412 13.8283442,27.6192163 L13.5306229,27.6253573 L13.2701183,27.6215569 L12.9723066,27.6068335 L12.6667961,27.5802541 L12.3920187,27.5464656 L12.0898275,27.4985633 L11.7110979,27.4226241 L11.447833,27.3598264 L11.2218904,27.2990673 L10.9094973,27.2052208 L10.5311086,27.0761519 C10.7792614,26.773905 11.0000507,26.4391532 11.1968026,26.0838989 Z M14.25,21.3834339 L15.5850915,21.7920741 C15.7026266,21.9162802 15.8233765,22.0387527 15.9466851,22.1588196 L16.3027684,22.492414 L16.5650155,22.7222897 L16.8852751,22.9863132 L17.2051424,23.2330162 L17.4530957,23.4133386 L17.76311,23.6261768 L18.1916124,23.8987393 L18.5585255,24.1133852 L18.8991557,24.2980999 L19.3578182,24.5259176 L19.5457657,24.6125313 L19.7011875,24.6815313 L20.0119271,24.8118166 L20.2900461,24.920162 L20.5712407,25.0222693 L20.9041906,25.1334256 C21.1647867,25.2163755 21.4295548,25.2913904 21.6983366,25.3581329 L22.1045,25.452 C22.993,25.64225 23.88,25.73375 24.75425,25.73375 L25.1553512,25.7273331 L25.3621949,25.7190015 L25.7362415,25.6952134 L26.0809851,25.6633122 L26.2425095,25.6450766 L26.6220875,25.5937907 L26.8557332,25.5562852 L27.2962605,25.4732606 L27.6860861,25.3860964 L28.1220514,25.2730553 L28.4647035,25.1724103 L28.8130453,25.0591797 L29.2502598,24.901012 L29.5666858,24.7750455 L29.9110983,24.6265686 L30.233518,24.4762908 L30.6395074,24.271465 L30.9667521,24.092677 L31.1654783,23.9774733 L31.3555,23.86375 L31.5691875,23.7298125 L31.7798939,23.591033 L31.9820708,23.846437 L32.2545,24.2015 L32.009,24.4053125 L31.75825,24.602 C31.693,24.652 31.6275,24.70125 31.5615,24.74975 C31.035,25.137 30.47775,25.48075 29.8945,25.77875 C28.245,26.6195 26.3895,27.08725 24.45375,27.08725 C23.8905,27.08725 23.32025,27.04775 22.7465,26.966 C20.54775,26.6535 18.57175,25.766 16.95075,24.47525 L16.712,24.28025 C15.7475,23.4725 14.91775,22.4436839 14.25,21.3834339 Z M1.55694494,17.223804 L1.67458616,17.0622052 L1.75796032,16.9599256 L1.88454439,16.8227252 L1.9644746,16.746439 L2.05668699,16.6676951 L2.14525,16.601125 C2.098,16.698625 2.04675,16.799675 1.9885,16.902625 C1.01925,18.61 3.3815,20.27125 4.38675,20.27125 C4.47475,20.27125 4.55225,20.2585 4.61625,20.232 C5.07171667,20.0432333 5.25169444,19.8601289 5.50274037,19.0779904 L5.55775,18.901 C5.70420922,18.4166477 5.89031345,18.05627 6.04879337,17.8215044 L6.04625,17.96525 C6.04475,18.099 6.0685,18.23225 6.088,18.36375 C6.124,18.49275 6.15025,18.62325 6.20725,18.74325 C6.3,18.9915 6.4545,19.203 6.612,19.3995 C6.62419388,19.4147551 6.63835569,19.4278028 6.65389893,19.4384879 L6.70586456,19.9535777 L6.76599599,20.476263 C6.86363425,21.2571792 6.99772016,22.0042746 7.20825,22.45 C7.90998003,23.9358843 9.18141233,25.0595597 10.6301299,25.8121445 C10.422507,26.1862084 10.1852425,26.5323249 9.91635718,26.8311727 L9.73187132,26.7490606 C9.54839071,26.6656745 9.3619389,26.5751903 9.1725374,26.4772137 L8.76384549,26.2564734 L8.40612782,26.0485465 L8.18162167,25.9109442 L7.91648936,25.7415351 L7.61260328,25.5381481 L7.520323,25.4745114 C7.39540579,25.3877694 7.26939554,25.2978391 7.14228731,25.2046245 L6.91146126,25.0327174 L6.56765582,24.766464 L6.15817924,24.4340787 L5.79021798,24.1211559 L5.4068678,23.7812938 L4.95494172,23.362402 L4.52217044,22.9432744 C4.32721223,22.7505698 4.1299736,22.550262 3.93057701,22.3422807 C3.64385926,22.0432188 3.35267964,21.7282911 3.057,21.39675 C2.9118,21.234 2.73924,21.08358 2.55795,20.939712 L1.96146083,20.4881181 L1.73293855,20.3088128 C1.10699092,19.7978394 0.686635318,19.2454217 1.04737669,18.2324108 L1.12223932,18.042 L1.19300277,17.8800349 C1.31200343,17.6193507 1.43465703,17.403116 1.55694494,17.223804 Z M24.7717924,24.8794881 L24.285072,24.8701033 L23.9481382,24.8517368 L23.7314891,24.8347882 L23.4815362,24.8102218 L23.1777565,24.7731192 L23.0747605,24.7587043 C22.9443122,24.7398808 22.8137565,24.7188192 22.6831434,24.6954932 L22.4336076,24.6481784 L22.28325,24.617 L21.7993565,24.5028312 L21.6533381,24.4641568 L21.2331542,24.3416207 L20.8864712,24.2276003 L20.4514168,24.0673256 L20.2588414,23.9900562 L19.979807,23.8710188 L19.6303489,23.7095625 L19.2807922,23.5337024 L18.967407,23.3632989 L18.8478651,23.2950231 L18.5757257,23.1323923 L18.099988,22.8231233 L17.7598893,22.5811303 L17.4819163,22.3693336 C17.3508843,22.2663809 17.2222269,22.1607885 17.0960081,22.0526551 C16.5916275,21.6206425 16.1253373,21.1470477 15.7022291,20.639055 L15.5060591,20.3971508 L15.4344466,20.3055207 L15.1637173,19.94146 L15.0385,19.76275 L15.3928015,20.0840755 C16.0690001,20.6754593 16.8994863,21.2843072 17.84675,21.83575 C18.5054208,22.2195849 19.2204558,22.5755253 19.9793585,22.8784674 L20.5043233,23.0768255 C20.6449423,23.1269694 20.7869006,23.1751963 20.9301246,23.2213581 L21.239983,23.3167536 L21.6536777,23.4333431 L22.1404778,23.552617 L22.58825,23.64525 L23.1633992,23.7432505 C23.6548495,23.8179606 24.1405828,23.8688023 24.6177933,23.8986324 L25.1892812,23.9245968 L25.7292393,23.93 L26.1997717,23.9235823 C26.5234128,23.9137669 26.8410397,23.8949988 27.15175,23.86825 L27.604707,23.8229575 L27.8556973,23.7927637 C28.1783403,23.7514754 28.4920497,23.70192 28.7955683,23.645416 L29.3666217,23.5289926 C29.9843907,23.390241 30.5520991,23.2243446 31.05775,23.0435 L30.7273767,23.2453335 L30.4318507,23.4137016 L30.2165596,23.5294464 L29.953094,23.6634687 L29.7563657,23.758243 L29.287377,23.9666224 L28.9553015,24.0997843 L28.669241,24.2052954 L28.3319986,24.3190752 L27.9213592,24.4425629 L27.5209456,24.5475035 L27.2990899,24.5992173 L26.9948286,24.6628142 L26.6773887,24.7202601 L26.2812282,24.7793789 L25.9197455,24.8212964 L25.5976419,24.8490767 L25.54348,24.8528671 C25.2830222,24.8703317 25.0280074,24.8791209 24.7717924,24.8794881 Z M38.51275,15.880275 L38.4605,16.2518 C38.3998413,16.6821827 38.2168819,17.0659304 37.9517534,17.3726785 C37.6877823,17.6783362 37.3420557,17.9076723 36.9544491,18.030557 C36.7609572,18.0913717 36.5577097,18.1260328 36.3489876,18.1306298 L36.4390311,17.9178452 L36.58364,17.5516233 L36.7130189,17.1916106 L36.7920068,16.9532125 L36.90375,16.585225 C37.516,16.54335 38.0815,16.286375 38.51275,15.880275 Z M10.75075,11.973 C11.0675,12.449225 11.539,12.820575 12.105,13.0074 C12.101,13.589325 12.13775,14.16615 12.213,14.7336 C12.1002366,14.6988 11.9911104,14.6551267 11.8864458,14.6030667 C11.8079754,14.564026 11.7323181,14.5204518 11.6594887,14.4724019 C11.5782726,14.4188188 11.5010381,14.3600519 11.4277516,14.2960647 C11.3735785,14.248687 11.3218783,14.198848 11.2724892,14.1463019 C11.2179945,14.0884163 11.1658051,14.0265024 11.11675,13.961375 C10.76575,13.4953 10.61725,12.920425 10.69875,12.3426 L10.75075,11.973 Z" id="shaddow" fill="#B9AFBE" fill-rule="nonzero"></path>
        <path d="M33.861,15.723375 C34.10775,15.2544 34.3285,14.768775 34.5215,14.26795 C34.49025,14.478275 34.43325,14.693075 34.3495,14.90625 C34.22625,15.21945 34.0575,15.4955 33.861,15.723375 Z" id="reflection-overlap" fill="#6B6577" fill-rule="nonzero"></path>
        <path d="M25.67875,23.9315 C24.6885,23.9315 23.65,23.8455 22.5885,23.645 C20.8385,23.31425 19.22,22.63525 17.84675,21.83575 C17.84475,21.8345 17.84275,21.8335 17.8405,21.83225 C19.037,22.032 20.20875,22.119 21.3305,22.119 C25.95175,22.119 29.7315,20.64275 30.97275,19.48775 C32.134,18.40775 33.1155,17.14125 33.861,15.723375 C34.0575,15.4955 34.22625,15.21945 34.3495,14.90625 C34.43325,14.693075 34.49025,14.478275 34.5215,14.26795 C34.80325,13.536825 35.02575,12.773175 35.183,11.98085 C35.341,11.185875 35.41925,10.423875 35.427,9.694725 C35.8925,10.35635 36.24925,11.080025 36.4805,11.866825 C36.5005,11.93415 36.51925,12.001875 36.53725,12.0701 C36.841,13.2272 36.87775,14.517125 36.59525,15.942725 C36.20675,17.902 35.31,19.63825 34.05875,21.05675 C33.81175,21.3365 33.551,21.60375 33.27775,21.858 C32.87575,22.232 32.13575,22.64875 31.15075,23.01 C31.15025,23.01 31.14975,23.01025 31.1495,23.0105 C31.14925,23.0105 31.149,23.0105 31.14875,23.01075 C30.07175,23.4055 28.702,23.73375 27.161,23.86725 C27.159,23.8675 27.157,23.86775 27.155,23.868 C27.154,23.868 27.1525,23.868 27.15175,23.86825 C26.676,23.90925 26.18375,23.9315 25.67875,23.9315 Z" id="underlighting" fill="#2A1A3B" fill-rule="nonzero"></path>
        <path d="M5.79359784,3.14609042 C5.96589163,3.17030473 6.08593376,3.32960602 6.06171945,3.50189981 L5.42598301,8.02539964 L5.63257563,8.0539942 L5.89344459,8.09010117 L6.50774576,3.7236484 C6.54406723,3.46520772 6.78301917,3.28514452 7.04145986,3.32146599 C7.29990055,3.35778746 7.47996375,3.5967394 7.44364228,3.85518008 L6.82924791,8.22161975 L7.29764471,8.28744863 L7.91159054,3.92094592 C7.94791201,3.66250523 8.18686395,3.48244203 8.44530464,3.5187635 C8.70374532,3.55508497 8.88380853,3.79403691 8.84748706,4.0524776 L8.23344803,8.41896721 L8.65905027,8.47977762 L9.29478672,3.95627779 C9.31900103,3.78398399 9.47830232,3.66394186 9.65059612,3.68815617 C9.83243706,3.71371225 9.96927987,3.86677939 9.9743689,4.05033686 C9.99483992,4.78608302 9.97066829,5.57848765 9.90185404,6.42755075 C9.83176367,7.29235921 9.74314431,7.96359532 9.63599597,8.44125909 L9.59494679,8.61130929 C9.48420657,9.18085209 9.2087254,9.6907035 8.76895847,10.1409275 C8.19836088,10.7250931 7.53595176,10.645713 7.33254605,10.8623474 L6.74429924,15.0504002 L6.90107199,15.0724482 L6.22901631,22.7738761 C6.17520324,23.3905474 5.66227587,23.8568583 5.05637388,23.8654416 L4.93406231,23.8609642 C4.91318526,23.8591423 4.89235972,23.8567719 4.87160729,23.8538554 C4.25861666,23.7677051 3.81990925,23.230978 3.84318328,22.6254623 L3.85886633,22.4724894 L5.34124446,14.8532287 L5.49729924,14.8744002 L6.06719782,10.8195991 C6.12120523,10.4353164 5.31086153,10.4229675 4.86291271,9.59196857 C4.60160923,9.1072192 4.47379794,8.6132561 4.47947883,8.11007928 L4.49008649,7.89386797 C4.50231821,7.39498406 4.60462062,6.66706454 4.79699374,5.71010943 C4.96487874,4.87496981 5.16005981,4.10659899 5.38253693,3.40499696 C5.43802412,3.22995293 5.61175689,3.12053434 5.79359784,3.14609042 Z" id="Path" fill="#FFFFFF"></path>
        <path d="M5.77154691,2.4427973 L5.89101901,2.45290277 C6.11307131,2.48411018 6.30818683,2.58495766 6.45739344,2.73026833 L6.5305537,2.70444382 C6.67949931,2.64317085 6.84265554,2.61196191 7.01140492,2.6173107 L7.13888103,2.62827834 C7.39539209,2.66432862 7.62078624,2.78082591 7.79314617,2.94869363 L7.80629924,2.96440023 L7.82548839,2.9532316 C8.00211555,2.8583577 8.20431297,2.80792223 8.4152497,2.81460822 L8.54272581,2.82557585 C8.75648502,2.85561775 8.94863527,2.94152564 9.10649322,3.06647068 L9.14229924,3.09840023 L9.22141042,3.06090221 C9.35034723,3.00786043 9.49158564,2.98084398 9.63766585,2.98547424 L9.74801729,2.99496852 C10.2681348,3.06806627 10.6595436,3.50589893 10.6740981,4.03086797 C10.6953022,4.79296059 10.6703607,5.61060314 10.5995663,6.48409843 C10.5270661,7.37864063 10.4345294,8.07954792 10.3164512,8.60551719 L10.2820785,8.74491316 C10.1446907,9.45150607 9.80310957,10.0839741 9.26971443,10.6300527 C9.14403969,10.7587158 9.00940165,10.8697961 8.8661455,10.9650608 C8.67424823,11.0926717 8.47576974,11.1870142 8.25805683,11.263056 C8.17901041,11.290665 8.10180402,11.3144858 8.01108962,11.3401901 L7.97029924,11.3504002 L7.61033404,13.9173459 C7.80833795,14.1577093 7.90876012,14.4771463 7.8620032,14.8098391 C7.82852834,15.0480251 7.72441029,15.2588863 7.5738016,15.4242225 L6.9263662,22.8347295 C6.84161692,23.8059146 6.0347542,24.5516519 5.03076626,24.564973 L4.87320892,24.558314 C4.82359874,24.5535464 4.82359874,24.5535464 4.77418612,24.547043 C3.80879772,24.4113665 3.10649892,23.5664239 3.14683328,22.5540713 L3.17175001,22.3388063 L4.59705743,15.0048222 C4.49825496,14.8046367 4.45651068,14.5736649 4.48992298,14.3359241 C4.53661713,14.0036779 4.72076539,13.724599 4.97681451,13.5480852 L5.33429924,11.0004002 L5.26264251,10.9547854 C5.15761971,10.8865026 5.03606613,10.8049183 4.94419093,10.736435 L4.88157125,10.6879414 C4.625111,10.4794379 4.41281577,10.2322205 4.24673401,9.92411885 C3.93041007,9.33729991 3.77247032,8.72689681 3.78031978,8.07577746 L3.7902968,7.87671041 C3.80372487,7.32903189 3.91102874,6.56552517 4.11072304,5.57215099 C4.28343902,4.71297983 4.48483655,3.92013657 4.71525947,3.19347677 C4.84955481,2.76981863 5.22600529,2.4805507 5.65375839,2.44585713 L5.77154691,2.4427973 Z M5.20327074,15.5657347 L3.85886633,22.4724894 L3.84318328,22.6254623 C3.81990925,23.230978 4.25861666,23.7677051 4.87160729,23.8538554 C4.89235972,23.8567719 4.91318526,23.8591423 4.93406231,23.8609642 L5.05637388,23.8654416 C5.66227587,23.8568583 6.17520324,23.3905474 6.22901631,22.7738761 L6.8380562,15.7953085 C6.74795818,15.8043707 6.6553405,15.8028731 6.56167205,15.7897089 L5.46979278,15.6362552 C5.37638375,15.6231274 5.28717715,15.599135 5.20327074,15.5657347 Z M5.62818055,13.9457973 L5.49729924,14.8744002 L5.34124446,14.8532287 L5.32237384,14.9537867 C5.38953099,14.9990055 5.46773182,15.030069 5.55329664,15.0420944 L6.64517591,15.195548 C6.73090764,15.2075968 6.81480115,15.1992357 6.89194468,15.174166 L6.90107199,15.0724482 L6.74429924,15.0504002 L6.87544632,14.1200435 C6.85061007,14.1128762 6.8249687,14.1073705 6.79862954,14.1036687 L5.70675027,13.9502151 L5.62818055,13.9457973 Z M5.38253693,3.40499696 C5.16005981,4.10659899 4.96487874,4.87496981 4.79699374,5.71010943 C4.60462062,6.66706454 4.50231821,7.39498406 4.49008649,7.89386797 L4.47947883,8.11007928 C4.47379794,8.6132561 4.60160923,9.1072192 4.86291271,9.59196857 C5.31086153,10.4229675 6.12120523,10.4353164 6.06719782,10.8195991 L5.71157821,13.3476963 C5.73769883,13.3495775 5.763935,13.3523554 5.79025413,13.3560543 L6.8821334,13.5095079 L6.95818055,13.5237973 L7.33254605,10.8623474 C7.53595176,10.645713 8.19836088,10.7250931 8.76895847,10.1409275 C9.2087254,9.6907035 9.48420657,9.18085209 9.59494679,8.61130929 L9.63599597,8.44125909 C9.74314431,7.96359532 9.83176367,7.29235921 9.90185404,6.42755075 C9.97066829,5.57848765 9.99483992,4.78608302 9.9743689,4.05033686 C9.96927987,3.86677939 9.83243706,3.71371225 9.65059612,3.68815617 C9.47830232,3.66394186 9.31900103,3.78398399 9.29478672,3.95627779 L8.65905027,8.47977762 L8.23344803,8.41896721 L8.84748706,4.0524776 C8.88380853,3.79403691 8.70374532,3.55508497 8.44530464,3.5187635 C8.18686395,3.48244203 7.94791201,3.66250523 7.91159054,3.92094592 L7.29764471,8.28744863 L6.82924791,8.22161975 L7.44364228,3.85518008 C7.47996375,3.5967394 7.29990055,3.35778746 7.04145986,3.32146599 C6.78301917,3.28514452 6.54406723,3.46520772 6.50774576,3.7236484 L5.89344459,8.09010117 L5.42598301,8.02539964 L6.06171945,3.50189981 C6.08593376,3.32960602 5.96589163,3.17030473 5.79359784,3.14609042 C5.61175689,3.12053434 5.43802412,3.22995293 5.38253693,3.40499696 Z" id="Combined-Shape" fill="#371A45" fill-rule="nonzero"></path>
        <path d="M5.62465819,14.0215767 L6.72726799,14.0215767 C7.03174527,14.0215767 7.27857288,14.2684043 7.27857288,14.5728816 C7.27857288,14.8773589 7.03174527,15.1241865 6.72726799,15.1241865 L5.62465819,15.1241865 C5.32018091,15.1241865 5.0733533,14.8773589 5.0733533,14.5728816 C5.0733533,14.2684043 5.32018091,14.0215767 5.62465819,14.0215767 Z" id="Rectangle-Copy-6" fill="#FFFFFF" transform="translate(6.176, 14.5729) rotate(8) translate(-6.176, -14.5729)"></path>
    </g>
</svg>